{"glyphs":{"0":{"ha":1022,"x_min":0,"x_max":1074,"o":"m 459 333 l 482 467 l 615 467 l 592 333 l 459 333 m 624 133 l 702 200 l 784 667 l 451 667 l 372 600 l 290 133 l 624 133 m 0 0 l 106 600 l 341 800 l 1074 800 l 969 200 l 733 0 l 0 0 z "},"1":{"ha":622,"x_min":117,"x_max":674,"o":"m 267 0 l 384 667 l 117 667 l 141 800 l 674 800 l 533 0 l 267 0 z "},"2":{"ha":1022,"x_min":0,"x_max":1039,"o":"m 0 0 l 71 400 l 738 400 l 772 600 l 717 667 l 384 667 l 360 533 l 94 533 l 141 800 l 874 800 l 1039 600 l 981 267 l 314 267 l 290 133 l 957 133 l 933 0 l 0 0 z "},"3":{"ha":1022,"x_min":0,"x_max":1074,"o":"m 0 0 l 47 267 l 314 267 l 290 133 l 624 133 l 702 200 l 726 333 l 671 400 l 71 400 l 94 533 l 694 533 l 772 600 l 784 667 l 117 667 l 141 800 l 1074 800 l 1039 600 l 882 467 l 992 333 l 969 200 l 733 0 l 0 0 z "},"4":{"ha":1022,"x_min":47,"x_max":1074,"o":"m 667 0 l 714 267 l 47 267 l 141 800 l 408 800 l 338 400 l 738 400 l 808 800 l 1074 800 l 933 0 l 667 0 z "},"5":{"ha":1022,"x_min":0,"x_max":1074,"o":"m 0 0 l 47 267 l 314 267 l 290 133 l 624 133 l 702 200 l 738 400 l 71 400 l 141 800 l 1074 800 l 1051 667 l 384 667 l 360 533 l 1027 533 l 969 200 l 733 0 l 0 0 z "},"6":{"ha":1022,"x_min":0,"x_max":1074,"o":"m 624 133 l 702 200 l 738 400 l 338 400 l 290 133 l 624 133 m 0 0 l 106 600 l 341 800 l 1074 800 l 1051 667 l 451 667 l 372 600 l 360 533 l 1027 533 l 969 200 l 733 0 l 0 0 z "},"7":{"ha":1022,"x_min":94,"x_max":1039,"o":"m 667 0 l 772 600 l 717 667 l 384 667 l 360 533 l 94 533 l 141 800 l 874 800 l 1039 600 l 933 0 l 667 0 z "},"8":{"ha":1022,"x_min":0,"x_max":1074,"o":"m 690 133 l 726 333 l 671 400 l 404 400 l 326 333 l 290 133 l 690 133 m 694 533 l 772 600 l 784 667 l 384 667 l 372 600 l 427 533 l 694 533 m 0 0 l 59 333 l 215 467 l 106 600 l 141 800 l 1074 800 l 1039 600 l 882 467 l 992 333 l 933 0 l 0 0 z "},"9":{"ha":1022,"x_min":0,"x_max":1074,"o":"m 451 667 l 372 600 l 337 400 l 737 400 l 784 667 l 451 667 m 1074 800 l 969 200 l 733 0 l 0 0 l 24 133 l 624 133 l 702 200 l 714 267 l 47 267 l 106 600 l 341 800 l 1074 800 z "}," ":{"ha":444,"x_min":0,"x_max":0,"o":""},"!":{"ha":356,"x_min":0,"x_max":408,"o":"m 0 0 l 35 200 l 302 200 l 267 0 l 0 0 m 59 333 l 141 800 l 408 800 l 326 333 l 59 333 z "},"\"":{"ha":756,"x_min":94,"x_max":819,"o":"m 94 533 l 184 667 l 117 667 l 153 867 l 419 867 l 384 667 l 227 533 l 94 533 m 494 533 l 584 667 l 517 667 l 553 867 l 819 867 l 784 667 l 627 533 l 494 533 z "},"$":{"ha":1022,"x_min":0,"x_max":1074,"o":"m 376 -133 l 400 0 l 0 0 l 24 133 l 624 133 l 702 200 l 714 267 l 47 267 l 106 600 l 341 800 l 541 800 l 565 933 l 698 933 l 674 800 l 1074 800 l 1027 533 l 760 533 l 784 667 l 451 667 l 372 600 l 338 400 l 1004 400 l 969 200 l 733 0 l 533 0 l 510 -133 l 376 -133 z "},"&":{"ha":1022,"x_min":0,"x_max":1074,"o":"m 0 0 l 59 333 l 215 467 l 106 600 l 141 800 l 1074 800 l 1051 667 l 384 667 l 372 600 l 427 533 l 627 533 l 604 400 l 404 400 l 326 333 l 290 133 l 624 133 l 702 200 l 760 533 l 1027 533 l 969 200 l 733 0 l 0 0 z "},"'":{"ha":356,"x_min":94,"x_max":419,"o":"m 94 533 l 184 667 l 117 667 l 153 867 l 419 867 l 384 667 l 227 533 l 94 533 z "},"(":{"ha":622,"x_min":-12,"x_max":722,"o":"m 153 -267 l -12 -67 l 153 867 l 388 1067 l 722 1067 l 698 933 l 498 933 l 419 867 l 255 -67 l 310 -133 l 510 -133 l 486 -267 l 153 -267 z "},")":{"ha":622,"x_min":-47,"x_max":686,"o":"m -47 -267 l -24 -133 l 176 -133 l 255 -67 l 419 867 l 365 933 l 165 933 l 188 1067 l 522 1067 l 686 867 l 522 -67 l 286 -267 l -47 -267 z "},"+":{"ha":889,"x_min":71,"x_max":894,"o":"m 290 133 l 338 400 l 71 400 l 94 533 l 361 533 l 408 800 l 675 800 l 628 533 l 894 533 l 871 400 l 604 400 l 557 133 l 290 133 z "},",":{"ha":356,"x_min":-24,"x_max":302,"o":"m -24 -133 l 67 0 l 0 0 l 35 200 l 302 200 l 267 0 l 110 -133 l -24 -133 z "},"-":{"ha":622,"x_min":71,"x_max":628,"o":"m 71 400 l 94 533 l 628 533 l 604 400 l 71 400 z "},".":{"ha":356,"x_min":0,"x_max":302,"o":"m 0 0 l 35 200 l 302 200 l 267 0 l 0 0 z "},":":{"ha":356,"x_min":0,"x_max":384,"o":"m 0 0 l 35 200 l 302 200 l 267 0 l 0 0 m 82 467 l 117 667 l 384 667 l 349 467 l 82 467 z "},";":{"ha":356,"x_min":-24,"x_max":384,"o":"m -24 -133 l 67 0 l 0 0 l 35 200 l 302 200 l 267 0 l 110 -133 l -24 -133 m 82 467 l 117 667 l 384 667 l 349 467 l 82 467 z "},"=":{"ha":889,"x_min":47,"x_max":918,"o":"m 47 267 l 71 400 l 871 400 l 847 267 l 47 267 m 94 533 l 118 667 l 918 667 l 894 533 l 94 533 z "},"?":{"ha":1022,"x_min":94,"x_max":1039,"o":"m 333 0 l 368 200 l 635 200 l 600 0 l 333 0 m 392 333 l 415 467 l 749 467 l 772 600 l 717 667 l 384 667 l 360 533 l 94 533 l 141 800 l 874 800 l 1039 600 l 992 333 l 392 333 z "},"A":{"ha":1022,"x_min":0,"x_max":1074,"o":"m 738 400 l 784 667 l 451 667 l 372 600 l 338 400 l 738 400 m 0 0 l 106 600 l 341 800 l 1074 800 l 933 0 l 667 0 l 714 267 l 314 267 l 267 0 l 0 0 z "},"B":{"ha":1022,"x_min":0,"x_max":1074,"o":"m 0 0 l 106 600 l 341 800 l 1074 800 l 1039 600 l 882 467 l 992 333 l 969 200 l 733 0 l 400 0 l 424 133 l 624 133 l 702 200 l 726 333 l 671 400 l 471 400 l 494 533 l 694 533 l 772 600 l 784 667 l 451 667 l 372 600 l 267 0 l 0 0 z "},"C":{"ha":1022,"x_min":0,"x_max":1074,"o":"m 0 0 l 106 600 l 341 800 l 1074 800 l 1027 533 l 760 533 l 784 667 l 451 667 l 372 600 l 290 133 l 957 133 l 933 0 l 0 0 z "},"D":{"ha":1022,"x_min":0,"x_max":1074,"o":"m 624 133 l 702 200 l 784 667 l 384 667 l 290 133 l 624 133 m 0 0 l 141 800 l 1074 800 l 969 200 l 733 0 l 0 0 z "},"E":{"ha":1022,"x_min":0,"x_max":1074,"o":"m 0 0 l 106 600 l 341 800 l 1074 800 l 1027 533 l 760 533 l 784 667 l 451 667 l 372 600 l 338 400 l 1004 400 l 981 267 l 314 267 l 290 133 l 957 133 l 933 0 l 0 0 z "},"F":{"ha":1022,"x_min":0,"x_max":1074,"o":"m 0 0 l 106 600 l 341 800 l 1074 800 l 1027 533 l 760 533 l 784 667 l 451 667 l 372 600 l 338 400 l 1004 400 l 981 267 l 314 267 l 267 0 l 0 0 z "},"G":{"ha":1022,"x_min":0,"x_max":1074,"o":"m 0 0 l 106 600 l 341 800 l 1074 800 l 1027 533 l 760 533 l 784 667 l 451 667 l 372 600 l 290 133 l 690 133 l 714 267 l 447 267 l 471 400 l 1004 400 l 933 0 l 0 0 z "},"H":{"ha":1022,"x_min":0,"x_max":1074,"o":"m 0 0 l 141 800 l 408 800 l 360 533 l 760 533 l 808 800 l 1074 800 l 933 0 l 667 0 l 738 400 l 338 400 l 267 0 l 0 0 z "},"I":{"ha":356,"x_min":0,"x_max":408,"o":"m 0 0 l 141 800 l 408 800 l 267 0 l 0 0 z "},"J":{"ha":1022,"x_min":0,"x_max":1074,"o":"m 0 0 l 47 267 l 314 267 l 290 133 l 624 133 l 702 200 l 784 667 l 384 667 l 408 800 l 1074 800 l 969 200 l 733 0 l 0 0 z "},"K":{"ha":1022,"x_min":0,"x_max":1074,"o":"m 0 0 l 141 800 l 408 800 l 360 533 l 627 533 l 808 800 l 1074 800 l 1051 667 l 984 667 l 894 533 l 1027 533 l 933 0 l 667 0 l 738 400 l 338 400 l 267 0 l 0 0 z "},"L":{"ha":1022,"x_min":0,"x_max":957,"o":"m 0 0 l 141 800 l 408 800 l 290 133 l 957 133 l 933 0 l 0 0 z "},"M":{"ha":1422,"x_min":0,"x_max":1439,"o":"m 0 0 l 141 800 l 1274 800 l 1439 600 l 1333 0 l 1067 0 l 1172 600 l 1117 667 l 917 667 l 800 0 l 533 0 l 651 667 l 384 667 l 267 0 l 0 0 z "},"N":{"ha":1022,"x_min":0,"x_max":1039,"o":"m 0 0 l 141 800 l 874 800 l 1039 600 l 933 0 l 667 0 l 772 600 l 717 667 l 384 667 l 267 0 l 0 0 z "},"O":{"ha":1022,"x_min":0,"x_max":1074,"o":"m 624 133 l 702 200 l 784 667 l 451 667 l 372 600 l 290 133 l 624 133 m 0 0 l 106 600 l 341 800 l 1074 800 l 969 200 l 733 0 l 0 0 z "},"P":{"ha":1022,"x_min":0,"x_max":1074,"o":"m 0 0 l 106 600 l 341 800 l 1074 800 l 1015 467 l 781 267 l 447 267 l 471 400 l 671 400 l 749 467 l 784 667 l 451 667 l 372 600 l 267 0 l 0 0 z "},"Q":{"ha":1022,"x_min":0,"x_max":1074,"o":"m 624 133 l 702 200 l 784 667 l 451 667 l 372 600 l 290 133 l 624 133 m 619 -267 l 533 0 l 0 0 l 106 600 l 341 800 l 1074 800 l 969 200 l 733 0 l 800 0 l 843 -133 l 910 -133 l 886 -267 l 619 -267 z "},"R":{"ha":1022,"x_min":0,"x_max":1074,"o":"m 0 0 l 106 600 l 341 800 l 1074 800 l 1015 467 l 781 267 l 847 267 l 890 133 l 957 133 l 933 0 l 667 0 l 581 267 l 447 267 l 471 400 l 671 400 l 749 467 l 784 667 l 451 667 l 372 600 l 267 0 l 0 0 z "},"S":{"ha":1022,"x_min":0,"x_max":1074,"o":"m 0 0 l 24 133 l 624 133 l 702 200 l 714 267 l 47 267 l 106 600 l 341 800 l 1074 800 l 1027 533 l 760 533 l 784 667 l 451 667 l 372 600 l 338 400 l 1004 400 l 969 200 l 733 0 l 0 0 z "},"T":{"ha":1022,"x_min":117,"x_max":1074,"o":"m 333 0 l 451 667 l 117 667 l 141 800 l 1074 800 l 1051 667 l 717 667 l 600 0 l 333 0 z "},"U":{"ha":1022,"x_min":35,"x_max":1074,"o":"m 200 0 l 35 200 l 141 800 l 408 800 l 302 200 l 357 133 l 690 133 l 808 800 l 1074 800 l 933 0 l 200 0 z "},"V":{"ha":1022,"x_min":0,"x_max":1074,"o":"m 0 0 l 141 800 l 408 800 l 290 133 l 490 133 l 726 333 l 808 800 l 1074 800 l 992 333 l 600 0 l 0 0 z "},"W":{"ha":1422,"x_min":0,"x_max":1474,"o":"m 0 0 l 141 800 l 408 800 l 290 133 l 557 133 l 674 800 l 941 800 l 824 133 l 1024 133 l 1102 200 l 1208 800 l 1474 800 l 1369 200 l 1133 0 l 0 0 z "},"X":{"ha":1022,"x_min":0,"x_max":1074,"o":"m 0 0 l 59 333 l 215 467 l 106 600 l 141 800 l 408 800 l 372 600 l 427 533 l 694 533 l 772 600 l 808 800 l 1074 800 l 1039 600 l 882 467 l 992 333 l 933 0 l 667 0 l 726 333 l 671 400 l 404 400 l 326 333 l 267 0 l 0 0 z "},"Y":{"ha":1022,"x_min":0,"x_max":1074,"o":"m 0 0 l 24 133 l 624 133 l 702 200 l 714 267 l 247 267 l 82 467 l 141 800 l 408 800 l 349 467 l 404 400 l 738 400 l 808 800 l 1074 800 l 969 200 l 733 0 l 0 0 z "},"Z":{"ha":1022,"x_min":35,"x_max":1040,"o":"m 200 0 l 35 200 l 71 400 l 738 400 l 773 600 l 717 667 l 384 667 l 361 533 l 94 533 l 141 800 l 874 800 l 1040 600 l 981 267 l 314 267 l 302 200 l 357 133 l 957 133 l 933 0 l 200 0 z "},"[":{"ha":622,"x_min":-47,"x_max":722,"o":"m -47 -267 l 188 1067 l 722 1067 l 698 933 l 431 933 l 243 -133 l 510 -133 l 486 -267 l -47 -267 z "},"]":{"ha":622,"x_min":-47,"x_max":722,"o":"m -47 -267 l -24 -133 l 243 -133 l 431 933 l 165 933 l 188 1067 l 722 1067 l 486 -267 l -47 -267 z "},"a":{"ha":1022,"x_min":0,"x_max":1074,"o":"m 0 0 l 106 600 l 341 800 l 1074 800 l 933 0 l 667 0 l 784 667 l 451 667 l 372 600 l 290 133 l 557 133 l 533 0 l 0 0 z "},"b":{"ha":1022,"x_min":0,"x_max":1039,"o":"m 0 0 l 188 1067 l 455 1067 l 290 133 l 690 133 l 772 600 l 717 667 l 517 667 l 541 800 l 874 800 l 1039 600 l 933 0 l 0 0 z "},"c":{"ha":1022,"x_min":0,"x_max":1074,"o":"m 0 0 l 106 600 l 341 800 l 1074 800 l 1027 533 l 760 533 l 784 667 l 451 667 l 372 600 l 290 133 l 957 133 l 933 0 l 0 0 z "},"d":{"ha":1022,"x_min":0,"x_max":1122,"o":"m 0 0 l 106 600 l 341 800 l 674 800 l 651 667 l 451 667 l 372 600 l 290 133 l 624 133 l 702 200 l 855 1067 l 1122 1067 l 969 200 l 733 0 l 0 0 z "},"e":{"ha":1022,"x_min":0,"x_max":1074,"o":"m 0 0 l 106 600 l 341 800 l 1074 800 l 1015 467 l 781 267 l 447 267 l 471 400 l 671 400 l 749 467 l 784 667 l 451 667 l 372 600 l 290 133 l 957 133 l 933 0 l 0 0 z "},"f":{"ha":1022,"x_min":0,"x_max":1074,"o":"m 0 0 l 106 600 l 341 800 l 1074 800 l 1027 533 l 760 533 l 784 667 l 451 667 l 372 600 l 338 400 l 1004 400 l 981 267 l 314 267 l 267 0 l 0 0 z "},"g":{"ha":1022,"x_min":-47,"x_max":1074,"o":"m -47 -267 l -24 -133 l 576 -133 l 655 -67 l 784 667 l 451 667 l 372 600 l 290 133 l 557 133 l 533 0 l 0 0 l 106 600 l 341 800 l 1074 800 l 922 -67 l 686 -267 l -47 -267 z "},"h":{"ha":1022,"x_min":0,"x_max":1074,"o":"m 0 0 l 141 800 l 408 800 l 360 533 l 760 533 l 808 800 l 1074 800 l 933 0 l 667 0 l 738 400 l 338 400 l 267 0 l 0 0 z "},"i":{"ha":356,"x_min":0,"x_max":408,"o":"m 0 0 l 94 533 l 360 533 l 267 0 l 0 0 m 117 667 l 141 800 l 408 800 l 384 667 l 117 667 z "},"j":{"ha":1022,"x_min":0,"x_max":1074,"o":"m 0 0 l 47 267 l 314 267 l 290 133 l 624 133 l 702 200 l 784 667 l 384 667 l 408 800 l 1074 800 l 969 200 l 733 0 l 0 0 z "},"k":{"ha":1022,"x_min":0,"x_max":1074,"o":"m 0 0 l 188 1067 l 455 1067 l 360 533 l 627 533 l 808 800 l 1074 800 l 1051 667 l 984 667 l 894 533 l 1027 533 l 933 0 l 667 0 l 738 400 l 338 400 l 267 0 l 0 0 z "},"l":{"ha":1022,"x_min":0,"x_max":981,"o":"m 0 0 l 188 1067 l 455 1067 l 290 133 l 690 133 l 714 267 l 981 267 l 933 0 l 0 0 z "},"m":{"ha":1422,"x_min":0,"x_max":1439,"o":"m 0 0 l 141 800 l 1274 800 l 1439 600 l 1333 0 l 1067 0 l 1172 600 l 1117 667 l 917 667 l 800 0 l 533 0 l 651 667 l 384 667 l 267 0 l 0 0 z "},"n":{"ha":1022,"x_min":0,"x_max":1039,"o":"m 0 0 l 141 800 l 874 800 l 1039 600 l 933 0 l 667 0 l 772 600 l 717 667 l 384 667 l 267 0 l 0 0 z "},"o":{"ha":1022,"x_min":0,"x_max":1074,"o":"m 624 133 l 702 200 l 784 667 l 451 667 l 372 600 l 290 133 l 624 133 m 0 0 l 106 600 l 341 800 l 1074 800 l 969 200 l 733 0 l 0 0 z "},"p":{"ha":1022,"x_min":-47,"x_max":1074,"o":"m -47 -267 l 106 600 l 341 800 l 1074 800 l 968 200 l 733 0 l 400 0 l 424 133 l 624 133 l 701 200 l 784 667 l 451 667 l 372 600 l 219 -267 l -47 -267 z "},"q":{"ha":1022,"x_min":0,"x_max":1074,"o":"m 619 -267 l 784 667 l 451 667 l 372 600 l 290 133 l 557 133 l 533 0 l 0 0 l 106 600 l 341 800 l 1074 800 l 886 -267 l 619 -267 z "},"r":{"ha":1022,"x_min":0,"x_max":1074,"o":"m 0 0 l 106 600 l 341 800 l 1074 800 l 1015 467 l 781 267 l 847 267 l 890 133 l 957 133 l 933 0 l 667 0 l 581 267 l 447 267 l 471 400 l 671 400 l 749 467 l 784 667 l 451 667 l 372 600 l 267 0 l 0 0 z "},"s":{"ha":1022,"x_min":0,"x_max":1074,"o":"m 0 0 l 24 133 l 624 133 l 702 200 l 714 267 l 47 267 l 106 600 l 341 800 l 1074 800 l 1027 533 l 760 533 l 784 667 l 451 667 l 372 600 l 338 400 l 1004 400 l 969 200 l 733 0 l 0 0 z "},"t":{"ha":622,"x_min":35,"x_max":674,"o":"m 200 0 l 35 200 l 188 1067 l 455 1067 l 408 800 l 674 800 l 651 667 l 384 667 l 302 200 l 357 133 l 557 133 l 533 0 l 200 0 z "},"u":{"ha":1022,"x_min":35,"x_max":1074,"o":"m 200 0 l 35 200 l 141 800 l 408 800 l 302 200 l 357 133 l 690 133 l 808 800 l 1074 800 l 933 0 l 200 0 z "},"v":{"ha":1022,"x_min":0,"x_max":1074,"o":"m 0 0 l 141 800 l 408 800 l 290 133 l 490 133 l 726 333 l 808 800 l 1074 800 l 992 333 l 600 0 l 0 0 z "},"w":{"ha":1422,"x_min":0,"x_max":1474,"o":"m 0 0 l 141 800 l 408 800 l 290 133 l 557 133 l 674 800 l 941 800 l 824 133 l 1024 133 l 1102 200 l 1208 800 l 1474 800 l 1369 200 l 1133 0 l 0 0 z "},"x":{"ha":1022,"x_min":0,"x_max":1074,"o":"m 0 0 l 59 333 l 215 467 l 106 600 l 141 800 l 408 800 l 372 600 l 427 533 l 694 533 l 772 600 l 808 800 l 1074 800 l 1039 600 l 882 467 l 992 333 l 933 0 l 667 0 l 726 333 l 671 400 l 404 400 l 326 333 l 267 0 l 0 0 z "},"y":{"ha":1022,"x_min":-47,"x_max":1074,"o":"m -47 -267 l -24 -133 l 576 -133 l 655 -67 l 667 0 l 200 0 l 35 200 l 141 800 l 408 800 l 301 200 l 357 133 l 690 133 l 808 800 l 1074 800 l 922 -67 l 686 -267 l -47 -267 z "},"z":{"ha":1022,"x_min":35,"x_max":1040,"o":"m 200 0 l 35 200 l 71 400 l 738 400 l 773 600 l 717 667 l 384 667 l 361 533 l 94 533 l 141 800 l 874 800 l 1040 600 l 981 267 l 314 267 l 302 200 l 357 133 l 957 133 l 933 0 l 200 0 z "},"{":{"ha":889,"x_min":59,"x_max":988,"o":"m 988 1067 l 965 933 l 765 933 l 686 867 l 628 533 l 471 400 l 581 267 l 522 -67 l 576 -133 l 776 -133 l 753 -267 l 419 -267 l 255 -67 l 314 267 l 259 333 l 59 333 l 83 467 l 283 467 l 361 533 l 419 867 l 655 1067 l 988 1067 z "},"|":{"ha":356,"x_min":-47,"x_max":455,"o":"m -47 -267 l 188 1067 l 455 1067 l 219 -267 l -47 -267 z "},"}":{"ha":889,"x_min":0,"x_max":929,"o":"m 0 -267 l 24 -133 l 224 -133 l 302 -67 l 360 267 l 517 400 l 408 533 l 467 867 l 412 933 l 212 933 l 236 1067 l 569 1067 l 733 867 l 674 533 l 729 467 l 929 467 l 906 333 l 706 333 l 627 267 l 569 -67 l 333 -267 l 0 -267 z "},"–":{"ha":622,"x_min":71,"x_max":628,"o":"m 71 400 l 94 533 l 628 533 l 604 400 l 71 400 z "},"—":{"ha":889,"x_min":71,"x_max":894,"o":"m 71 400 l 94 533 l 894 533 l 871 400 l 71 400 z "},"‘":{"ha":444,"x_min":171,"x_max":497,"o":"m 171 467 l 206 667 l 363 800 l 497 800 l 406 667 l 473 667 l 438 467 l 171 467 z "},"’":{"ha":444,"x_min":183,"x_max":508,"o":"m 183 533 l 273 667 l 206 667 l 242 867 l 508 867 l 473 667 l 316 533 l 183 533 z "},"“":{"ha":844,"x_min":171,"x_max":897,"o":"m 171 467 l 206 667 l 363 800 l 497 800 l 406 667 l 473 667 l 438 467 l 171 467 m 571 467 l 606 667 l 763 800 l 897 800 l 806 667 l 873 667 l 838 467 l 571 467 z "},"”":{"ha":844,"x_min":183,"x_max":908,"o":"m 183 533 l 273 667 l 206 667 l 242 867 l 508 867 l 473 667 l 316 533 l 183 533 m 583 533 l 673 667 l 606 667 l 642 867 l 908 867 l 873 667 l 716 533 l 583 533 z "},"…":{"ha":1156,"x_min":0,"x_max":1102,"o":"m 0 0 l 35 200 l 302 200 l 267 0 l 0 0 m 400 0 l 435 200 l 702 200 l 667 0 l 400 0 m 800 0 l 835 200 l 1102 200 l 1067 0 l 800 0 z "},"":{"ha":5334,"x_min":0,"x_max":5341,"o":"m 3538 400 l 3560 533 l 3827 533 l 3804 400 l 3538 400 m 753 -267 l 581 267 l 447 267 l 471 400 l 671 400 l 749 467 l 784 667 l 451 667 l 372 600 l 267 0 l 0 0 l 106 600 l 341 800 l 1074 800 l 1015 467 l 781 267 l 847 267 l 976 -133 l 1976 -133 l 1953 -267 l 753 -267 m 1067 0 l 1172 600 l 1408 800 l 2141 800 l 2082 467 l 1847 267 l 1514 267 l 1538 400 l 1738 400 l 1815 467 l 1851 667 l 1517 667 l 1439 600 l 1357 133 l 2024 133 l 2000 0 l 1067 0 m 2133 0 l 2239 600 l 2474 800 l 3208 800 l 3090 133 l 3490 133 l 3514 267 l 3781 267 l 3733 0 l 2800 0 l 2917 667 l 2584 667 l 2506 600 l 2424 133 l 2690 133 l 2667 0 l 2133 0 m 3867 0 l 3984 667 l 3584 667 l 3608 800 l 4674 800 l 4651 667 l 4251 667 l 4133 0 l 3867 0 m 3819 -267 l 3843 -133 l 4843 -133 l 4922 -67 l 4933 0 l 4467 0 l 4302 200 l 4360 533 l 4627 533 l 4569 200 l 4624 133 l 4957 133 l 5074 800 l 5341 800 l 5188 -67 l 4953 -267 l 3819 -267 z "},"":{"ha":5334,"x_min":0,"x_max":5341,"o":"m 0 0 l 141 800 l 408 800 l 360 533 l 760 533 l 808 800 l 1474 800 l 1451 667 l 1051 667 l 933 0 l 667 0 l 738 400 l 338 400 l 267 0 l 0 0 m 619 -267 l 643 -133 l 1643 -133 l 1722 -67 l 1733 0 l 1267 0 l 1102 200 l 1160 533 l 1427 533 l 1369 200 l 1424 133 l 1757 133 l 1874 800 l 2141 800 l 1988 -67 l 1753 -267 l 619 -267 m 2133 0 l 2239 600 l 2474 800 l 3208 800 l 3149 467 l 2914 267 l 2581 267 l 2604 400 l 2804 400 l 2882 467 l 2917 667 l 2584 667 l 2506 600 l 2400 0 l 2133 0 m 3200 0 l 3306 600 l 3541 800 l 4274 800 l 4215 467 l 3981 267 l 3647 267 l 3671 400 l 3871 400 l 3949 467 l 3984 667 l 3651 667 l 3572 600 l 3490 133 l 4290 133 l 4372 600 l 4608 800 l 5341 800 l 5282 467 l 5047 267 l 5114 267 l 5157 133 l 5224 133 l 5200 0 l 4933 0 l 4847 267 l 4714 267 l 4738 400 l 4938 400 l 5015 467 l 5051 667 l 4717 667 l 4639 600 l 4533 0 l 3200 0 z "},"":{"ha":956,"x_min":0,"x_max":887,"o":"m 145 800 l 703 800 l 732 771 q 684 593 693 600 l 858 593 l 887 565 q 829 361 842 361 l 706 310 l 674 310 l 645 339 l 661 413 l 642 413 q 587 206 595 206 l 384 206 l 381 181 l 606 181 q 635 284 627 284 l 665 284 q 797 200 760 244 q 742 0 751 8 l 184 0 l 155 29 l 197 206 l 29 206 l 0 235 q 145 800 137 800 m 158 774 l 32 258 l 229 258 l 235 251 l 187 51 l 703 51 l 742 210 l 648 258 l 648 255 q 619 155 627 155 l 322 155 l 316 161 q 345 258 338 258 l 548 258 q 603 465 594 465 l 693 465 l 700 458 q 681 361 681 390 q 793 419 793 409 l 829 567 l 313 567 q 258 361 267 361 l 167 361 l 161 367 q 242 671 234 666 l 539 671 l 545 665 q 532 593 532 622 q 645 651 645 641 l 674 774 l 158 774 m 281 619 l 226 387 l 245 387 q 300 593 292 593 l 503 593 l 506 619 l 281 619 m 397 465 l 487 465 l 494 458 q 465 361 472 361 l 374 361 l 367 367 q 397 465 389 465 m 435 413 l 432 387 l 451 387 l 455 413 l 435 413 z "}}}
